<svg width="50" height="53" fill="none" xmlns="http://www.w3.org/2000/svg"><circle cx="25" cy="27.75" r="25" fill="#68B738"/><g clip-path="url(#clip0)"><path d="M34.92 0h-.19c-.32.18-.58.45-.73.79-.28.53-.5 1.1-.65 1.68a.8.8 0 01-.73.67A3.69 3.69 0 0030 5c-.36.63-.67 1.3-.93 1.98-.7 1.82-1.25 3.7-1.92 5.53-.31.84-.33.84-1.28.84-1.14 0-1.05-.17-1.07 1.06 0 .4.12.6.54.57.13 0 .32-.06.38.1.05.18-.13.25-.22.35-.6.6-1.35 1.01-2.17 1.2-.95.26-1.92.46-2.84.76-2.38.8-4.57 1.89-6.28 3.75-1 1.16-1.8 2.47-2.38 3.88C10 29.3 9.12 33.8 8.43 38.36a92.04 92.04 0 00-.73 6.43C7.6 45.85 7.5 46.92 7.5 48h16.66c.03-.22 0-.44-.11-.63a2.48 2.48 0 00-1.91-1.52c-.36-.08-.4-.19-.18-.46.35-.46.62-.98.8-1.53.81-2.38 1.13-4.87 1.52-7.33.22-1.87.8-3.7 1.72-5.35.71-1.23 1.66-2.3 2.8-3.16.41-.3.43-.3.5.22.04.35.05.71.08 1.07.15 2.34.12 4.68-.09 7.02a30.2 30.2 0 00-.07 5.44c.2 2.1.57 4.19 1.13 6.23H37a2.67 2.67 0 00-2.12-2.2 4.54 4.54 0 00-1.88.1c-.3.07-.42 0-.45-.32a27.6 27.6 0 01.5-7.83 87.13 87.13 0 001.53-9c.13-1.22.52-2.4 1.14-3.46.6-1.05 1.12-2.14 1.7-3.19a2.88 2.88 0 00.21-2.57c-.14-.35-.27-.7-.43-1.04-.5-.97-1-1.92-1.46-2.9-.25-.5-.19-.55.35-.57.82 0 .82 0 .83-.8v-.33c0-.35-.13-.53-.5-.5h-.76c-.34 0-.44-.14-.35-.5a3.08 3.08 0 012.56-2.19c1.1-.1 2.22-.02 3.31.22a.5.5 0 00.63-.32c.2-.5.41-.99.64-1.48a.5.5 0 00-.05-.57c-1.6-2-3.34-3.88-5.7-5.09a.74.74 0 01-.44-.55c-.13-.7-.35-1.4-.63-2.06a1.74 1.74 0 00-.71-.85z" fill="#000"/></g><defs><clipPath id="clip0"><path fill="#fff" transform="translate(7.5)" d="M0 0h35v48H0z"/></clipPath></defs></svg>